{"glyphs":{":":{"x_min":0,"x_max":346,"ha":346,"o":"m 228 429 q 228 444 222 457 q 216 470 206 480 q 196 489 183 495 q 170 500 155 500 q 140 500 127 494 q 114 489 104 479 q 95 469 89 457 q 83 444 83 429 q 83 414 89 401 q 95 388 104 378 q 114 368 127 362 q 140 356 155 356 q 170 356 183 362 q 196 368 206 378 q 216 388 222 401 q 228 414 228 429 z m 228 61 q 228 76 222 89 q 216 102 206 111 q 196 121 183 126 q 170 132 155 132 q 140 132 127 126 q 114 121 104 111 q 95 102 89 89 q 83 76 83 61 q 83 46 89 33 q 95 20 104 10 q 114 0 127 -6 q 140 -12 155 -12 q 170 -12 183 -6 q 196 0 206 10 q 216 20 222 33 q 228 46 228 61 z"},"$":{"x_min":0,"x_max":530,"ha":530,"o":"m 488 183 q 488 226 474 258 q 460 290 435 316 q 409 343 372 368 q 334 394 288 424 l 288 648 q 315 643 339 629 q 364 616 384 595 q 404 574 419 546 q 434 518 442 484 l 463 484 l 463 630 q 449 637 430 646 q 411 655 388 663 q 366 670 340 676 q 314 682 288 683 l 288 707 l 244 707 l 244 683 q 201 679 164 665 q 127 650 100 628 q 72 605 57 573 q 41 542 41 502 q 41 465 54 437 q 67 409 93 383 q 119 357 157 332 q 195 306 244 275 l 244 23 q 210 25 182 36 q 154 46 132 65 q 111 85 96 115 q 82 145 75 187 l 53 187 l 53 23 q 73 15 97 8 q 120 1 145 -4 q 170 -9 195 -12 q 221 -16 244 -16 l 244 -70 l 288 -70 l 288 -10 q 343 -5 381 13 q 419 31 443 58 q 466 84 477 117 q 488 149 488 183 z m 244 452 q 225 464 208 477 q 190 489 177 503 q 164 516 156 531 q 149 546 149 563 q 149 582 158 598 q 167 614 180 625 q 194 636 211 643 q 228 649 244 649 z m 373 118 q 373 81 353 58 q 332 34 288 23 l 288 243 q 310 227 326 212 q 342 198 353 183 q 363 168 368 152 q 373 136 373 118 z"},"?":{"x_min":0,"x_max":520,"ha":520,"o":"m 462 542 q 462 583 445 614 q 429 645 401 664 q 373 684 336 694 q 300 703 260 703 q 208 703 171 690 q 134 676 110 655 q 86 633 74 606 q 63 579 63 552 q 63 537 68 524 q 72 511 81 502 q 90 493 104 487 q 117 482 135 482 q 147 482 157 487 q 167 491 175 499 q 182 507 186 518 q 190 528 190 540 q 190 554 185 567 q 180 580 175 591 q 169 603 164 613 q 159 624 159 631 q 159 640 165 647 q 171 654 179 659 q 188 664 198 667 q 208 670 217 670 q 259 670 284 636 q 308 602 308 542 q 308 516 305 495 q 302 475 298 459 q 293 442 287 429 q 280 415 273 402 q 263 384 256 371 q 249 357 243 345 q 238 333 234 321 q 231 310 229 296 q 227 282 226 265 q 225 248 225 225 l 247 225 q 247 256 255 278 q 263 300 276 317 q 290 333 307 346 q 324 359 342 371 q 360 383 379 396 q 397 409 412 426 q 421 437 430 448 q 439 459 446 473 q 453 487 458 504 q 462 521 462 542 z m 325 69 q 325 86 319 102 q 312 117 301 128 q 289 140 274 146 q 258 153 241 153 q 224 153 208 146 q 193 140 182 128 q 170 117 164 102 q 157 86 157 69 q 157 52 164 36 q 170 21 182 10 q 193 -2 208 -9 q 224 -15 241 -15 q 258 -15 274 -9 q 289 -2 301 10 q 312 21 319 36 q 325 52 325 69 z"},"<":{"x_min":0,"x_max":804,"ha":804,"o":"m 702 39 l 702 101 l 166 300 l 702 499 l 702 561 l 102 331 l 102 269 z"},"'":{"x_min":0,"x_max":237,"ha":237,"o":"m 194 628 q 194 644 188 657 q 182 671 172 681 q 162 691 148 697 q 134 703 118 703 q 103 703 89 697 q 75 691 65 681 q 55 671 49 657 q 43 644 43 628 q 43 622 46 604 q 50 587 55 563 q 61 540 68 513 q 75 486 81 460 q 88 435 94 413 q 99 392 103 379 q 106 367 106 366 l 130 366 q 130 367 133 379 q 137 392 143 413 q 148 435 155 460 q 162 486 169 513 q 176 540 181 563 q 187 587 190 604 q 194 622 194 628 z"},"=":{"x_min":0,"x_max":574,"ha":574,"o":"m 540 306 l 540 393 l 38 393 l 38 306 z m 540 113 l 540 200 l 38 200 l 38 113 z"},"a":{"x_min":0,"x_max":520,"ha":520,"o":"m 503 64 l 489 78 q 478 64 469 60 q 459 56 453 59 q 446 62 443 71 q 439 79 439 91 l 439 340 q 439 370 430 397 q 421 424 402 444 q 382 465 350 477 q 318 489 271 489 q 246 489 220 485 q 195 480 171 472 q 147 464 126 453 q 105 441 90 425 q 74 410 65 391 q 56 372 56 349 q 56 334 63 323 q 71 311 82 302 q 93 294 107 290 q 120 285 132 285 q 145 285 157 289 q 169 293 179 301 q 188 309 194 320 q 199 331 199 345 q 199 358 194 367 q 189 375 183 383 q 176 390 171 397 q 166 404 166 414 q 166 424 172 431 q 179 438 188 442 q 198 446 209 448 q 221 449 231 449 q 266 449 281 430 q 297 411 297 378 l 297 300 q 231 271 184 245 q 137 219 107 194 q 76 169 62 142 q 47 116 47 85 q 47 64 54 48 q 62 31 75 19 q 88 7 106 1 q 124 -6 146 -6 q 167 -6 188 1 q 208 9 228 20 q 248 31 265 44 q 283 57 297 69 q 298 55 304 42 q 310 28 320 17 q 331 6 347 0 q 364 -7 387 -7 q 410 -7 428 1 q 446 8 461 19 q 476 30 486 42 q 497 55 503 64 z m 297 108 q 297 108 291 103 q 286 99 277 93 q 269 87 259 83 q 248 78 239 78 q 216 78 201 93 q 186 108 186 134 q 186 150 193 166 q 199 181 209 194 q 219 208 232 219 q 245 230 257 240 q 270 249 280 255 q 291 261 297 265 z"},"L":{"x_min":0,"x_max":683,"ha":683,"o":"m 655 241 l 635 241 q 623 198 610 167 q 597 135 582 112 q 566 90 548 75 q 529 61 506 53 q 482 44 454 41 q 425 38 389 38 q 351 38 328 41 q 306 43 294 50 q 283 58 280 71 q 277 85 277 108 l 277 580 q 277 606 281 624 q 286 641 298 651 q 310 661 330 665 q 351 669 382 669 l 382 688 l 20 688 l 20 669 q 51 669 70 665 q 89 661 100 651 q 110 641 114 624 q 117 606 117 580 l 117 108 q 117 82 114 64 q 110 47 100 37 q 89 27 70 23 q 51 19 20 19 l 20 0 l 629 0 z"},"3":{"x_min":0,"x_max":513,"ha":513,"o":"m 461 240 q 461 282 449 310 q 437 339 418 358 q 400 377 378 389 q 357 401 339 409 q 382 430 403 464 q 425 499 425 538 q 425 568 414 594 q 403 619 382 637 q 361 656 332 666 q 303 676 266 676 q 233 676 201 664 q 168 652 139 630 q 110 607 87 574 q 64 542 51 499 l 70 494 q 91 540 122 563 q 153 587 197 587 q 219 587 238 578 q 258 570 272 555 q 287 541 296 522 q 304 503 304 482 q 304 461 297 441 q 289 421 272 404 q 254 387 227 373 q 199 360 159 352 l 160 333 q 167 334 172 334 q 177 334 182 334 q 223 334 256 319 q 290 304 313 278 q 337 252 351 218 q 364 184 364 146 q 364 120 356 98 q 348 76 334 61 q 320 45 299 37 q 279 29 254 29 q 239 29 225 35 q 211 41 198 51 q 186 60 173 71 q 161 82 148 91 q 135 101 121 107 q 107 113 92 113 q 70 113 56 101 q 42 89 42 64 q 42 52 49 40 q 56 27 73 17 q 89 6 118 0 q 146 -7 189 -7 q 264 -7 316 13 q 368 32 400 66 q 433 99 447 144 q 461 189 461 240 z"},";":{"x_min":0,"x_max":346,"ha":346,"o":"m 228 429 q 228 444 222 457 q 216 470 206 480 q 196 489 183 495 q 170 500 155 500 q 140 500 127 494 q 114 489 104 479 q 95 469 89 457 q 83 444 83 429 q 83 414 89 401 q 95 388 104 378 q 114 368 127 362 q 140 356 155 356 q 170 356 183 362 q 196 368 206 378 q 216 388 222 401 q 228 414 228 429 z m 237 21 q 237 40 231 59 q 226 78 215 93 q 204 108 189 117 q 173 127 154 127 q 119 127 101 108 q 83 89 83 58 q 83 43 89 31 q 94 19 103 10 q 111 1 121 -3 q 130 -8 139 -8 q 146 -8 152 -6 q 158 -4 163 -2 q 168 0 173 2 q 177 4 182 4 q 188 4 191 -3 q 195 -10 195 -16 q 195 -28 189 -43 q 183 -57 171 -71 q 160 -85 145 -97 q 129 -109 110 -117 l 121 -143 q 177 -120 207 -77 q 237 -33 237 21 z"},"J":{"x_min":0,"x_max":520,"ha":520,"o":"m 514 669 l 514 688 l 153 688 l 153 669 q 184 669 204 665 q 224 661 236 651 q 248 641 252 624 q 257 606 257 580 l 257 200 q 257 140 252 105 q 248 70 239 52 q 229 34 217 30 q 204 25 188 25 q 178 25 167 27 q 156 30 147 35 q 138 40 132 47 q 126 54 126 64 q 126 71 131 79 q 137 87 143 96 q 149 105 155 116 q 160 127 160 139 q 160 154 154 167 q 148 180 138 190 q 128 200 115 205 q 103 211 90 211 q 74 211 59 205 q 45 199 34 189 q 24 179 18 165 q 11 150 11 134 q 11 104 25 78 q 40 51 65 30 q 91 10 127 -3 q 163 -15 206 -15 q 249 -15 287 -4 q 325 8 354 33 q 383 59 400 100 q 417 141 417 200 l 417 580 q 417 606 420 624 q 424 641 434 651 q 445 661 464 665 q 483 669 514 669 z"},"V":{"x_min":0,"x_max":751,"ha":751,"o":"m 740 669 l 740 688 l 515 688 l 515 669 q 640 669 590 560 l 433 206 l 265 598 q 257 616 255 629 q 252 643 259 651 q 266 660 284 665 q 303 669 338 669 l 338 688 l 8 688 l 8 669 q 23 669 35 666 q 46 663 57 652 q 67 642 78 621 q 89 601 104 566 l 356 -15 l 373 -15 l 633 565 q 655 613 680 637 q 706 662 740 669 z"},"\"":{"x_min":0,"x_max":574,"ha":574,"o":"m 485 628 q 485 644 479 657 q 473 671 463 681 q 453 691 439 697 q 425 703 409 703 q 394 703 380 697 q 366 691 356 681 q 346 671 340 657 q 334 644 334 628 q 334 622 337 604 q 341 587 346 563 q 352 540 359 513 q 366 486 372 460 q 379 435 385 413 q 390 392 394 379 q 397 367 397 366 l 421 366 q 421 367 424 379 q 428 392 434 413 q 439 435 446 460 q 453 486 460 513 q 467 540 472 563 q 478 587 481 604 q 485 622 485 628 z m 240 628 q 240 644 234 657 q 228 671 218 681 q 208 691 194 697 q 180 703 164 703 q 148 703 135 697 q 121 691 111 681 q 101 671 95 657 q 89 644 89 628 q 89 622 92 604 q 96 587 101 563 q 107 540 114 513 q 121 486 127 460 q 134 435 139 413 q 145 392 148 379 q 152 367 152 366 l 176 366 q 176 367 179 379 q 183 392 188 413 q 194 435 201 460 q 208 486 215 513 q 222 540 227 563 q 233 587 237 604 q 240 622 240 628 z"},"7":{"x_min":0,"x_max":513,"ha":513,"o":"m 457 630 l 457 662 l 71 662 l 22 488 l 44 486 q 55 505 65 519 q 75 533 88 542 q 101 550 120 554 q 139 558 169 558 l 351 558 l 167 0 l 254 0 z"},"S":{"x_min":0,"x_max":578,"ha":578,"o":"m 537 195 q 537 238 521 272 q 505 305 479 332 q 453 358 419 378 q 386 399 351 417 q 315 435 282 452 q 249 468 222 487 q 196 505 180 527 q 164 548 164 576 q 164 597 173 614 q 183 630 198 642 q 213 654 233 660 q 252 667 273 667 q 306 667 339 654 q 372 641 399 616 q 427 592 447 556 q 466 520 473 474 l 494 474 l 489 703 l 472 703 q 469 685 462 671 q 456 657 442 657 q 428 657 412 664 q 396 671 375 680 q 355 689 329 696 q 303 703 270 703 q 222 703 183 689 q 143 674 115 648 q 86 623 70 587 q 54 551 54 508 q 54 463 70 430 q 85 396 111 370 q 137 344 170 323 q 203 303 237 286 q 271 268 304 251 q 337 235 363 216 q 389 197 404 174 q 420 151 420 121 q 420 99 409 80 q 399 61 382 48 q 365 34 343 27 q 321 19 299 19 q 266 19 237 29 q 208 39 184 56 q 160 73 141 96 q 122 119 108 144 q 94 168 85 194 q 77 220 74 244 l 54 244 l 54 -15 l 72 -15 q 82 3 94 14 q 105 25 124 25 q 142 25 157 19 q 172 12 190 5 q 208 -2 233 -9 q 258 -15 296 -15 q 347 -15 391 0 q 435 15 467 43 q 500 71 519 109 q 537 148 537 195 z"},"}":{"x_min":0,"x_max":479,"ha":479,"o":"m 431 225 l 431 271 q 404 274 381 282 q 358 291 342 304 q 326 317 316 336 q 307 355 307 382 l 307 531 q 307 564 295 587 q 283 611 263 627 q 244 643 219 653 q 193 662 167 667 q 140 672 114 673 q 88 675 68 675 l 68 647 q 126 640 156 613 q 186 586 186 532 l 186 398 q 186 367 193 346 q 200 324 213 309 q 226 294 243 285 q 260 275 280 269 q 299 263 321 258 q 343 254 365 249 q 343 244 321 239 q 299 234 280 228 q 260 221 243 212 q 226 202 213 187 q 200 172 193 151 q 186 129 186 98 l 186 -36 q 186 -90 156 -117 q 126 -144 68 -151 l 68 -179 q 88 -179 114 -178 q 140 -176 167 -171 q 193 -166 219 -156 q 244 -146 263 -130 q 283 -114 295 -91 q 307 -67 307 -34 l 307 114 q 307 141 316 160 q 326 179 342 192 q 358 206 381 213 q 404 221 431 225 z"},"Z":{"x_min":0,"x_max":694,"ha":694,"o":"m 675 250 l 655 250 q 642 189 617 148 q 593 108 557 83 q 522 59 477 48 q 432 38 378 38 l 230 38 l 634 688 l 90 688 l 72 487 l 90 487 q 101 537 123 568 q 145 600 170 618 q 196 636 223 643 q 249 650 269 650 l 421 650 l 17 0 l 648 0 z"},"x":{"x_min":0,"x_max":520,"ha":520,"o":"m 503 0 l 503 19 q 487 19 475 26 q 463 33 452 45 q 441 57 432 73 q 423 88 414 105 l 314 290 l 368 369 q 383 391 397 407 q 411 424 424 435 q 438 445 452 451 q 467 456 484 456 l 484 474 l 316 474 l 316 455 q 350 453 356 434 q 363 416 340 384 l 297 322 l 253 404 q 238 432 244 443 q 251 455 287 456 l 287 474 l 24 474 l 24 456 q 39 455 51 448 q 63 442 74 431 q 84 420 94 404 q 104 388 115 368 l 209 194 l 151 110 q 138 91 125 75 q 112 58 97 46 q 82 33 64 26 q 46 19 24 19 l 24 0 l 209 0 l 209 19 q 197 19 185 21 q 172 24 166 32 q 160 40 162 54 q 164 69 180 94 l 226 162 l 276 70 q 291 42 281 31 q 271 21 238 19 l 238 0 z"},")":{"x_min":0,"x_max":346,"ha":346,"o":"m 305 250 q 305 331 281 398 q 258 465 219 518 q 181 570 133 608 q 85 646 36 668 l 25 645 q 62 616 89 581 q 117 545 136 499 q 155 453 164 393 q 174 333 174 255 q 174 180 165 119 q 156 57 138 8 q 120 -42 92 -80 q 63 -119 25 -147 l 37 -170 q 68 -157 100 -136 q 131 -115 161 -87 q 191 -60 217 -25 q 244 10 263 52 q 283 95 294 144 q 305 193 305 250 z"},"&":{"x_min":0,"x_max":895,"ha":895,"o":"m 832 126 l 811 137 q 797 113 780 97 q 763 81 738 81 q 723 81 709 86 q 694 91 678 101 q 662 111 643 127 q 625 143 601 164 q 636 206 659 241 q 683 276 700 306 q 715 331 726 348 q 737 365 749 376 q 760 387 774 393 q 789 398 809 400 l 809 420 l 597 420 l 597 400 q 624 396 638 382 q 653 368 653 343 q 653 326 646 307 q 640 288 629 268 q 619 249 604 229 q 590 209 574 192 q 551 218 530 244 q 509 270 489 296 q 470 322 451 350 q 433 377 415 408 q 443 420 475 435 q 506 450 531 471 q 557 492 574 519 q 591 547 591 583 q 591 608 580 630 q 570 651 550 668 q 530 684 502 694 q 474 703 438 703 q 397 703 362 690 q 326 677 300 653 q 274 629 259 596 q 244 563 244 522 q 244 497 248 474 q 252 451 258 433 q 263 415 268 403 q 272 392 274 388 q 250 378 226 365 q 201 353 177 337 q 154 322 133 303 q 112 285 96 262 q 81 240 71 213 q 62 186 62 155 q 62 119 76 88 q 90 57 116 34 q 143 11 180 -2 q 218 -15 266 -15 q 304 -15 337 -7 q 371 0 399 13 q 428 25 453 40 q 477 55 497 70 q 514 53 532 38 q 550 22 570 11 q 590 -1 614 -8 q 637 -15 664 -15 q 702 -15 729 0 q 757 16 777 38 q 797 60 810 84 q 823 108 832 126 z m 496 551 q 496 523 485 505 q 475 486 459 473 q 444 460 427 452 q 410 444 398 439 q 394 448 386 465 q 378 482 371 503 q 363 524 358 546 q 352 568 352 587 q 352 600 356 614 q 359 627 367 638 q 375 649 388 656 q 400 663 418 663 q 436 663 450 654 q 464 644 475 628 q 485 612 490 592 q 496 572 496 550 z m 467 101 q 463 99 453 92 q 442 84 427 77 q 412 70 393 64 q 375 58 357 58 q 327 58 299 73 q 270 88 247 113 q 225 138 211 170 q 197 203 197 237 q 197 260 204 279 q 212 297 225 312 q 238 326 254 337 q 271 348 288 355 q 303 324 320 294 q 337 265 357 236 q 401 170 467 101 z"},"_":{"x_min":0,"x_max":500,"ha":500,"o":"m 500 -147 l 500 -80 l 0 -80 l 0 -147 z"},"v":{"x_min":0,"x_max":520,"ha":520,"o":"m 511 456 l 511 474 l 356 474 l 356 456 q 377 455 390 449 q 402 443 406 431 q 410 419 406 401 q 403 383 394 360 l 318 172 l 226 383 q 221 395 218 408 q 216 421 219 432 q 223 442 233 449 q 243 456 262 456 l 262 474 l 9 474 l 9 456 q 24 455 36 445 q 47 436 56 422 q 65 409 71 395 q 78 380 83 368 l 250 -15 l 274 -15 l 434 363 q 442 382 449 398 q 457 415 465 427 q 474 439 485 447 q 496 455 511 456 z"},"O":{"x_min":0,"x_max":805,"ha":805,"o":"m 768 344 q 768 394 755 440 q 742 486 718 526 q 693 566 660 599 q 626 631 586 655 q 545 678 498 690 q 452 703 402 703 q 352 703 306 690 q 259 678 219 655 q 178 631 145 599 q 111 566 87 526 q 63 486 50 440 q 37 394 37 344 q 37 294 50 248 q 63 202 87 162 q 111 122 145 89 q 178 57 219 33 q 259 10 306 -2 q 352 -15 402 -15 q 452 -15 498 -2 q 545 10 586 33 q 626 57 660 89 q 693 122 718 162 q 742 202 755 248 q 768 294 768 344 z m 585 344 q 585 308 581 270 q 578 232 569 197 q 561 161 547 130 q 534 98 513 74 q 493 51 466 37 q 438 23 402 23 q 366 23 338 37 q 311 51 291 74 q 271 98 257 130 q 244 161 235 197 q 227 232 224 270 q 220 308 220 344 q 220 380 224 418 q 227 456 235 491 q 244 527 257 559 q 271 590 291 614 q 311 637 338 651 q 366 665 402 665 q 438 665 466 651 q 493 638 513 614 q 534 590 547 558 q 561 527 569 491 q 578 456 581 418 q 585 380 585 344 z"},"(":{"x_min":0,"x_max":346,"ha":346,"o":"m 318 -147 q 278 -119 250 -80 q 222 -41 204 10 q 186 61 177 123 q 169 186 169 261 q 169 338 179 397 q 189 456 209 502 q 228 547 256 582 q 283 616 318 645 l 308 667 q 255 642 206 603 q 157 564 120 512 q 83 460 60 394 q 38 329 38 250 q 38 192 50 142 q 62 91 83 48 q 104 5 130 -30 q 157 -65 187 -93 q 217 -120 247 -140 q 278 -159 305 -171 z"},"C":{"x_min":0,"x_max":751,"ha":751,"o":"m 695 466 l 695 704 l 676 704 q 672 694 669 685 q 665 675 660 668 q 654 661 647 657 q 640 653 629 653 q 622 653 603 661 q 584 668 557 678 q 530 688 496 695 q 461 703 422 703 q 367 703 317 689 q 268 675 225 650 q 183 625 149 591 q 115 557 91 517 q 67 477 54 433 q 41 389 41 344 q 41 299 50 255 q 59 211 78 171 q 97 131 127 97 q 157 63 199 38 q 241 13 295 -1 q 350 -15 418 -15 q 471 -15 510 -6 q 550 2 580 18 q 611 33 635 54 q 659 75 682 98 l 682 158 q 651 125 625 101 q 598 78 571 62 q 544 47 514 40 q 483 32 445 32 q 385 32 343 56 q 301 81 274 123 q 248 165 235 222 q 223 279 223 344 q 223 409 237 467 q 251 524 280 566 q 309 609 352 634 q 395 658 453 658 q 490 658 525 646 q 560 634 590 610 q 619 586 641 550 q 664 514 675 466 z"},"W":{"x_min":0,"x_max":1040,"ha":1040,"o":"m 1031 669 l 1031 688 l 852 688 l 852 669 q 880 669 896 662 q 912 656 917 642 q 922 629 919 608 q 916 588 905 560 l 783 235 l 644 598 q 636 619 635 633 q 633 646 640 655 q 647 663 663 666 q 680 669 707 669 l 707 688 l 373 688 l 373 669 q 393 669 407 666 q 421 664 434 653 q 446 643 458 622 q 469 602 483 566 l 516 479 l 408 218 l 262 577 q 252 602 249 619 q 246 637 251 648 q 256 659 271 664 q 285 669 308 669 l 308 688 l 9 688 l 9 669 q 22 669 32 666 q 42 663 52 653 q 61 642 72 622 q 82 601 96 566 l 329 -15 l 350 -15 l 537 427 l 706 -15 l 727 -15 l 948 565 q 958 592 966 612 q 974 632 983 645 q 991 657 1002 663 q 1014 669 1031 669 z"},"A":{"x_min":0,"x_max":751,"ha":751,"o":"m 739 0 l 739 19 q 726 20 713 24 q 701 28 689 40 q 677 51 665 71 q 652 91 639 122 l 384 703 l 374 703 l 114 123 q 101 93 89 74 q 77 55 65 44 q 53 33 39 28 q 25 22 8 19 l 8 0 l 237 0 l 237 19 q 203 21 182 28 q 162 35 153 48 q 144 61 146 81 q 148 100 160 128 l 189 196 l 433 196 l 477 90 q 485 71 487 57 q 490 44 483 35 q 476 27 458 23 q 440 19 407 19 l 407 0 z m 415 233 l 207 233 l 313 471 z"},"f":{"x_min":0,"x_max":346,"ha":346,"o":"m 423 630 q 423 650 412 664 q 401 678 384 687 q 366 695 345 699 q 324 703 303 703 q 249 703 210 689 q 172 675 148 651 q 125 626 114 594 q 103 562 103 525 l 103 474 l 33 474 l 33 425 l 103 425 l 103 93 q 103 66 99 52 q 96 37 87 30 q 79 22 66 21 q 53 19 33 19 l 33 0 l 313 0 l 313 19 q 293 19 281 21 q 268 24 260 31 q 252 39 249 54 q 245 68 245 93 l 245 425 l 315 425 l 315 474 l 245 474 l 245 555 q 245 565 245 576 q 245 587 245 597 q 245 608 244 617 q 244 626 244 633 q 244 658 254 666 q 264 675 278 675 q 289 675 296 668 q 304 662 304 654 q 304 645 301 635 q 297 626 297 616 q 297 609 301 602 q 304 594 312 588 q 319 582 331 577 q 343 573 359 573 q 371 573 383 577 q 395 582 403 589 q 412 597 417 607 q 423 618 423 630 z"},"Q":{"x_min":0,"x_max":805,"ha":805,"o":"m 768 344 q 768 419 742 484 q 716 550 669 598 q 621 647 553 675 q 485 703 402 703 q 347 703 299 690 q 251 678 210 655 q 170 631 138 599 q 105 566 83 526 q 61 486 49 440 q 37 394 37 344 q 37 281 55 223 q 74 166 109 120 q 145 74 196 42 q 247 10 313 -4 q 333 -51 364 -86 q 394 -121 431 -143 q 468 -166 510 -177 q 552 -188 595 -188 q 621 -188 645 -185 q 670 -182 689 -177 q 708 -173 720 -170 q 732 -167 732 -167 l 732 -137 l 690 -141 q 646 -141 613 -131 q 581 -121 557 -103 q 534 -85 519 -60 q 503 -35 493 -5 q 553 3 604 35 q 654 66 690 114 q 727 162 748 221 q 768 281 768 344 z m 585 344 q 585 308 582 270 q 579 232 571 197 q 563 161 551 130 q 538 98 517 74 q 497 51 468 37 q 440 23 402 23 q 364 23 336 37 q 308 51 288 74 q 268 98 255 130 q 242 161 234 197 q 226 232 223 270 q 220 308 220 344 q 220 380 223 418 q 227 456 235 491 q 243 527 256 559 q 269 590 289 614 q 310 637 337 651 q 365 665 402 665 q 440 665 469 651 q 498 638 518 614 q 539 590 552 558 q 564 527 572 491 q 580 456 582 418 q 585 380 585 344 z"},"w":{"x_min":0,"x_max":751,"ha":751,"o":"m 740 456 l 740 474 l 600 474 l 600 456 q 621 455 631 449 q 642 443 646 433 q 649 424 646 410 q 644 396 638 380 l 573 196 l 504 383 q 496 406 492 420 q 489 434 493 441 q 497 449 508 452 q 520 455 542 456 l 542 474 l 291 474 l 291 456 q 308 455 319 447 q 331 439 338 428 q 345 417 349 404 q 354 391 358 379 l 291 196 l 215 401 q 209 416 207 426 q 205 436 208 442 q 210 449 220 452 q 230 455 249 456 l 249 474 l 8 474 l 8 456 q 24 452 36 442 q 48 433 56 420 q 65 408 71 394 q 77 380 81 368 l 222 -15 l 249 -15 l 375 333 l 505 -15 l 535 -15 l 668 363 q 676 385 682 402 q 688 418 696 430 q 704 441 714 448 q 725 454 740 456 z"},"-":{"x_min":0,"x_max":346,"ha":346,"o":"m 297 184 l 297 269 l 39 269 l 39 184 z"},"E":{"x_min":0,"x_max":683,"ha":683,"o":"m 646 218 l 628 218 q 609 163 586 128 q 563 93 531 73 q 499 53 457 46 q 416 38 360 38 q 333 38 317 42 q 301 45 292 53 q 284 61 281 74 q 278 88 278 108 l 278 330 l 300 330 q 336 330 359 317 q 382 304 396 282 q 410 260 418 231 q 425 202 430 171 l 449 171 l 449 531 l 430 531 q 426 497 418 467 q 411 438 397 416 q 382 394 359 382 q 336 369 300 369 l 278 369 l 278 650 l 364 650 q 412 650 448 643 q 484 635 510 617 q 536 598 552 566 q 569 534 578 485 l 597 485 l 597 688 l 21 688 l 21 669 q 52 669 71 665 q 90 661 101 651 q 111 641 115 624 q 118 606 118 580 l 118 108 q 118 82 115 64 q 111 47 101 37 q 90 27 71 23 q 52 19 21 19 l 21 0 l 616 0 z"},"s":{"x_min":0,"x_max":405,"ha":405,"o":"m 368 148 q 368 180 352 207 q 335 234 310 257 q 286 279 257 299 q 228 318 203 336 q 178 354 162 370 q 145 387 145 405 q 145 425 158 438 q 171 450 195 450 q 221 450 242 437 q 264 424 280 405 q 296 386 307 365 q 319 343 326 326 l 343 326 l 335 488 l 318 488 q 315 484 312 479 q 310 475 306 471 q 302 468 297 465 q 292 463 285 463 q 277 463 269 467 q 260 471 249 476 q 238 480 224 485 q 209 489 189 489 q 158 489 131 479 q 104 469 84 450 q 64 431 53 404 q 42 377 42 343 q 42 307 58 279 q 74 251 98 229 q 122 207 150 188 q 179 169 203 152 q 227 135 243 118 q 259 102 259 82 q 259 53 243 38 q 227 24 204 24 q 182 24 160 35 q 138 46 119 65 q 101 83 86 108 q 72 132 66 158 l 48 158 l 56 -12 l 73 -12 q 78 -3 83 5 q 89 12 100 12 q 108 12 120 8 q 132 3 147 -2 q 163 -7 179 -11 q 196 -15 213 -15 q 246 -15 275 -3 q 303 9 324 31 q 345 53 356 83 q 368 112 368 148 z"},">":{"x_min":0,"x_max":804,"ha":804,"o":"m 702 269 l 702 331 l 102 561 l 102 499 l 638 300 l 102 101 l 102 39 z"},"l":{"x_min":0,"x_max":289,"ha":289,"o":"m 278 0 l 278 19 q 258 20 247 24 q 235 29 229 38 q 224 46 222 60 q 220 74 220 93 l 220 688 l 22 688 l 22 670 q 41 667 52 664 q 63 661 69 652 q 75 644 76 629 q 78 615 78 591 l 78 93 q 78 74 77 60 q 75 46 70 38 q 64 29 53 24 q 42 20 22 19 l 22 0 z"},"8":{"x_min":0,"x_max":513,"ha":513,"o":"m 462 160 q 462 173 461 187 q 460 201 457 215 q 453 230 444 246 q 435 263 419 282 q 403 301 378 323 q 353 345 317 372 q 352 390 377 407 q 403 425 419 444 q 435 463 443 485 q 450 506 450 531 q 450 561 439 586 q 428 612 405 632 q 382 651 345 662 q 309 673 258 673 q 209 673 170 661 q 132 650 105 628 q 78 606 64 575 q 50 543 50 504 q 50 483 56 461 q 62 438 77 416 q 91 393 115 370 q 138 347 172 325 q 139 310 113 292 q 88 275 71 253 q 54 232 46 206 q 37 180 37 149 q 37 107 54 77 q 72 46 101 27 q 131 7 170 -2 q 208 -11 251 -11 q 307 -11 347 3 q 387 17 412 41 q 438 64 450 95 q 462 126 462 160 z m 335 529 q 335 491 324 457 q 312 423 284 397 q 249 419 227 439 q 204 458 191 478 q 178 497 173 515 q 168 534 168 554 q 168 596 190 619 q 212 641 249 641 q 272 641 289 632 q 305 623 315 607 q 326 591 330 571 q 335 551 335 529 z m 341 110 q 341 91 336 75 q 331 59 320 47 q 310 34 295 27 q 280 20 260 20 q 234 20 215 31 q 196 43 183 62 q 170 81 164 105 q 157 129 157 156 q 157 191 167 226 q 178 261 207 296 q 251 264 278 240 q 304 216 318 195 q 332 173 336 153 q 341 133 341 110 z"},"\\":{"x_min":0,"x_max":319,"ha":319,"o":"m 294 -17 l 73 676 l 9 676 l 228 -17 z"},"e":{"x_min":0,"x_max":462,"ha":462,"o":"m 437 130 l 420 141 q 411 127 401 114 q 390 100 377 88 q 364 77 348 69 q 332 62 312 62 q 277 62 252 81 q 227 100 210 129 q 194 158 186 191 q 177 225 177 255 l 437 255 q 437 297 426 339 q 415 380 393 414 q 370 447 336 468 q 301 489 254 489 q 217 489 179 473 q 141 457 110 426 q 79 394 60 347 q 40 300 40 237 q 40 179 54 133 q 67 86 93 53 q 119 21 156 3 q 194 -15 241 -15 q 286 -15 318 0 q 351 15 374 37 q 396 59 412 84 q 427 109 437 130 z m 312 288 l 175 288 q 175 302 176 320 q 176 337 179 356 q 182 375 187 393 q 191 411 199 425 q 208 439 219 448 q 231 456 248 456 q 264 456 275 448 q 286 439 293 425 q 300 411 304 393 q 308 375 310 357 q 312 338 312 320 q 312 302 312 288 z"},"b":{"x_min":0,"x_max":580,"ha":580,"o":"m 536 257 q 536 312 521 356 q 505 399 480 428 q 455 458 422 473 q 389 489 354 489 q 332 489 314 484 q 296 480 280 472 q 264 464 249 452 q 235 440 220 426 l 220 688 l 22 688 l 22 670 q 36 668 46 666 q 57 664 64 658 q 71 653 74 643 q 78 632 78 615 l 78 -15 l 96 -15 l 177 37 q 184 30 196 21 q 207 12 223 4 q 238 -4 259 -10 q 279 -15 303 -15 q 359 -15 403 8 q 446 31 476 69 q 505 107 521 156 q 536 205 536 257 z m 386 247 q 386 190 382 148 q 378 105 368 78 q 358 50 341 36 q 323 22 297 22 q 262 22 241 47 q 220 73 220 120 l 220 381 q 228 390 237 398 q 246 407 256 415 q 267 422 279 427 q 292 431 306 431 q 332 431 348 414 q 363 397 372 371 q 380 344 383 312 q 386 279 386 247 z"},"%":{"x_min":0,"x_max":879,"ha":879,"o":"m 835 253 q 835 276 830 301 q 825 326 810 346 q 796 366 771 379 q 745 392 704 392 q 671 392 640 381 q 608 370 581 350 q 553 331 530 305 q 507 280 491 251 q 475 222 465 192 q 456 162 456 134 q 456 99 462 71 q 469 43 485 24 q 500 4 527 -6 q 553 -16 593 -16 q 631 -16 664 -4 q 697 8 724 28 q 750 49 771 76 q 792 103 806 133 q 820 163 828 194 q 835 225 835 253 z m 706 706 l 612 706 q 585 672 547 656 q 510 639 466 638 q 446 638 432 642 q 418 646 407 652 q 396 658 385 665 q 375 672 364 678 q 352 684 336 688 q 321 692 299 692 q 266 692 234 682 q 203 672 174 654 q 146 636 122 611 q 98 586 81 556 q 63 527 54 494 q 44 460 44 426 q 44 391 51 364 q 58 337 75 320 q 92 302 119 293 q 147 284 188 284 q 222 284 253 296 q 283 307 309 327 q 335 347 356 374 q 377 400 392 430 q 406 460 414 491 q 422 523 422 553 q 422 570 420 584 q 418 599 414 612 q 430 606 444 604 q 458 602 470 602 q 493 602 515 610 q 537 617 567 631 l 186 -15 l 282 -15 z m 796 242 q 796 220 789 195 q 781 170 769 146 q 756 122 740 100 q 723 79 705 62 q 687 45 668 36 q 649 26 633 26 q 599 26 580 43 q 560 61 560 90 q 560 123 569 155 q 578 187 592 216 q 606 245 624 270 q 642 295 661 313 q 680 332 698 342 q 716 352 730 352 q 745 352 757 346 q 769 340 778 327 q 786 314 791 293 q 796 272 796 242 z m 385 542 q 385 522 378 499 q 371 476 359 452 q 347 428 331 405 q 315 382 297 365 q 279 348 260 337 q 240 326 222 326 q 188 326 168 344 q 148 361 148 390 q 148 423 156 455 q 165 487 178 516 q 192 545 210 570 q 229 595 248 613 q 267 631 287 642 q 307 652 323 652 q 336 652 348 645 q 359 639 367 625 q 375 611 380 591 q 385 570 385 542 z"},"m":{"x_min":0,"x_max":866,"ha":866,"o":"m 839 0 l 839 19 q 822 21 812 26 q 801 30 796 39 q 791 47 790 61 q 788 74 788 93 l 788 324 q 788 362 781 392 q 773 423 757 444 q 741 466 716 477 q 691 489 656 489 q 610 489 572 465 q 533 440 501 402 q 494 420 484 436 q 475 452 460 464 q 445 476 425 482 q 405 489 378 489 q 355 489 336 484 q 317 479 300 470 q 283 460 266 446 q 250 431 231 411 l 231 474 l 38 474 l 38 456 q 54 454 64 450 q 74 447 80 438 q 85 430 87 416 q 89 401 89 377 l 89 93 q 89 71 87 58 q 85 44 80 36 q 75 28 65 25 q 55 21 38 19 l 38 0 l 282 0 l 282 19 q 265 21 255 26 q 245 30 240 39 q 234 47 233 61 q 231 74 231 93 l 231 357 q 252 388 273 405 q 294 423 322 423 q 344 423 356 403 q 368 383 368 354 l 368 93 q 368 72 366 58 q 364 45 358 37 q 352 29 342 25 q 332 21 317 19 l 317 0 l 563 0 l 563 19 q 546 21 535 25 q 525 29 519 38 q 514 46 512 59 q 510 73 510 93 l 510 358 q 518 370 528 382 q 538 394 549 402 q 561 411 573 417 q 586 422 600 422 q 625 422 635 403 q 646 383 646 354 l 646 93 q 646 74 643 61 q 641 47 635 39 q 629 31 621 26 q 612 21 599 19 l 599 0 z"},"#":{"x_min":0,"x_max":519,"ha":519,"o":"m 499 201 l 499 271 l 387 271 l 415 414 l 499 414 l 499 485 l 429 485 l 474 703 l 402 703 l 359 485 l 216 485 l 260 703 l 189 703 l 145 485 l 20 485 l 20 414 l 130 414 l 103 271 l 20 271 l 20 201 l 88 201 l 45 -15 l 115 -15 l 160 201 l 302 201 l 258 -15 l 330 -15 l 373 201 z m 345 414 l 316 271 l 175 271 l 203 414 z"},",":{"x_min":0,"x_max":346,"ha":346,"o":"m 236 21 q 236 40 230 59 q 225 78 214 93 q 203 107 188 117 q 172 126 153 126 q 117 126 99 107 q 82 89 82 58 q 82 43 87 31 q 93 19 101 10 q 109 1 119 -3 q 128 -8 137 -8 q 144 -8 150 -6 q 156 -4 161 -2 q 167 0 171 1 q 176 3 181 3 q 187 3 190 -3 q 194 -10 194 -16 q 194 -28 188 -43 q 182 -57 170 -71 q 159 -85 144 -97 q 128 -109 109 -117 l 120 -143 q 176 -120 206 -77 q 236 -33 236 21 z"},"n":{"x_min":0,"x_max":578,"ha":578,"o":"m 548 0 l 548 19 q 531 21 521 26 q 510 30 505 39 q 500 47 499 61 q 497 74 497 93 l 497 324 q 497 362 489 392 q 481 423 465 444 q 449 466 424 477 q 399 489 365 489 q 342 489 322 481 q 302 474 285 463 q 268 452 253 438 q 239 425 228 413 l 228 474 l 35 474 l 35 456 q 51 454 61 450 q 71 447 77 438 q 82 430 84 416 q 86 401 86 377 l 86 93 q 86 71 84 58 q 83 44 77 36 q 72 28 62 25 q 52 21 35 19 l 35 0 l 276 0 l 276 19 q 261 21 252 26 q 243 31 237 39 q 232 47 230 61 q 228 74 228 93 l 228 356 q 235 367 243 379 q 251 390 261 399 q 271 408 283 414 q 295 420 309 420 q 334 420 344 402 q 355 383 355 354 l 355 93 q 355 74 353 61 q 351 47 346 39 q 341 31 332 26 q 322 21 308 19 l 308 0 z"},"h":{"x_min":0,"x_max":578,"ha":578,"o":"m 548 0 l 548 19 q 531 21 521 26 q 510 30 505 39 q 500 47 499 61 q 497 74 497 93 l 497 324 q 497 362 489 392 q 481 423 465 444 q 449 466 424 477 q 399 489 365 489 q 342 489 322 481 q 302 474 285 463 q 268 452 253 438 q 239 425 228 413 l 228 688 l 35 688 l 35 670 q 51 667 61 664 q 71 661 77 652 q 82 644 84 629 q 86 615 86 591 l 86 93 q 86 71 84 58 q 83 44 77 36 q 72 28 62 25 q 52 21 35 19 l 35 0 l 276 0 l 276 19 q 261 21 252 26 q 243 31 237 39 q 232 47 230 61 q 228 74 228 93 l 228 356 q 235 367 243 379 q 251 390 261 399 q 271 408 283 414 q 295 420 309 420 q 334 420 344 402 q 355 383 355 354 l 355 93 q 355 74 353 61 q 351 47 346 39 q 341 31 332 26 q 322 21 308 19 l 308 0 z"},"z":{"x_min":0,"x_max":462,"ha":462,"o":"m 445 462 l 445 474 l 46 474 l 46 337 l 62 337 q 71 369 81 389 q 90 410 104 422 q 118 434 139 439 q 160 444 192 444 l 271 444 l 10 11 l 10 0 l 424 0 l 439 162 l 424 162 q 412 119 393 93 q 374 67 348 54 q 323 41 290 36 q 258 32 218 32 l 186 32 z"},"B":{"x_min":0,"x_max":694,"ha":694,"o":"m 657 188 q 657 222 646 250 q 635 278 611 300 q 587 322 550 339 q 513 355 461 365 q 515 378 548 396 q 580 413 597 433 q 614 454 619 477 q 624 500 624 527 q 624 553 612 581 q 600 610 573 634 q 546 657 505 673 q 463 688 405 688 l 21 688 l 21 669 q 52 669 71 665 q 90 661 101 651 q 111 641 115 624 q 118 606 118 580 l 118 108 q 118 82 115 64 q 111 47 101 37 q 90 27 71 23 q 52 19 21 19 l 21 0 l 400 0 q 449 0 495 12 q 541 24 577 48 q 613 71 635 106 q 657 142 657 188 z m 454 514 q 454 485 445 461 q 437 437 419 419 q 401 401 375 391 q 348 381 311 380 l 278 379 l 278 650 l 311 649 q 352 648 379 637 q 407 627 423 609 q 440 591 447 567 q 454 542 454 514 z m 478 183 q 478 144 465 116 q 451 89 430 72 q 409 54 384 46 q 358 38 334 38 q 320 38 309 41 q 298 43 292 50 q 285 57 281 68 q 278 80 278 98 l 278 339 l 311 338 q 351 337 382 327 q 413 317 434 298 q 456 279 467 251 q 478 222 478 183 z"},"K":{"x_min":0,"x_max":807,"ha":807,"o":"m 813 0 l 813 19 q 800 19 786 23 q 771 26 755 36 q 739 45 721 61 q 703 77 683 102 l 426 425 l 678 626 q 708 649 732 660 q 756 671 777 671 l 777 688 l 510 688 l 510 671 q 537 671 557 665 q 577 658 584 646 q 592 634 585 617 q 578 600 551 578 l 278 357 l 278 580 q 278 606 281 624 q 284 641 293 651 q 302 661 317 665 q 333 669 358 669 l 358 688 l 21 688 l 21 669 q 52 669 71 665 q 90 661 101 651 q 111 641 115 624 q 118 606 118 580 l 118 108 q 118 82 115 64 q 111 47 101 37 q 90 27 71 23 q 52 19 21 19 l 21 0 l 362 0 l 362 19 q 335 19 319 23 q 303 27 294 37 q 285 47 281 64 q 278 82 278 108 l 278 306 l 303 327 l 490 90 q 501 76 506 63 q 510 50 507 40 q 503 30 490 25 q 478 19 454 19 l 454 0 z"},"R":{"x_min":0,"x_max":748,"ha":748,"o":"m 757 0 l 757 19 q 750 19 741 21 q 732 22 724 27 q 715 31 706 38 q 697 45 690 56 l 497 326 q 538 335 566 352 q 595 369 614 392 q 632 415 641 443 q 650 471 650 501 q 650 543 633 578 q 617 612 585 637 q 553 661 507 675 q 461 688 403 688 l 19 688 l 19 669 q 50 669 69 665 q 87 661 97 651 q 107 641 110 624 q 113 606 113 580 l 113 108 q 113 82 110 64 q 107 47 97 37 q 87 27 69 23 q 50 19 19 19 l 19 0 l 368 0 l 368 19 q 338 19 319 23 q 301 27 291 36 q 280 46 277 62 q 273 78 273 103 l 273 313 l 320 313 l 540 0 z m 483 501 q 483 472 476 445 q 470 417 454 397 q 439 376 414 364 q 389 351 351 351 l 273 351 l 273 650 l 341 650 q 384 650 412 637 q 439 625 455 604 q 471 583 477 556 q 483 529 483 501 z"},"T":{"x_min":0,"x_max":693,"ha":693,"o":"m 656 502 l 656 688 l 37 688 l 37 502 l 57 502 q 64 540 76 567 q 87 595 104 614 q 122 632 148 641 q 173 650 209 650 l 266 650 l 266 108 q 266 82 262 64 q 258 47 248 37 q 237 27 218 23 q 198 19 167 19 l 167 0 l 525 0 l 525 19 q 494 19 474 23 q 455 27 444 37 q 434 47 430 64 q 426 82 426 108 l 426 650 l 483 650 q 519 650 545 641 q 570 632 588 614 q 606 595 618 567 q 629 540 636 502 z"},"P":{"x_min":0,"x_max":632,"ha":632,"o":"m 601 501 q 601 543 584 578 q 567 612 535 637 q 503 661 458 675 q 412 688 353 688 l 24 688 l 24 669 q 55 669 74 665 q 92 661 102 651 q 112 641 115 624 q 118 606 118 580 l 118 108 q 118 82 115 64 q 112 47 102 37 q 92 27 74 23 q 55 19 24 19 l 24 0 l 373 0 l 373 19 q 343 19 324 23 q 306 27 295 36 q 285 46 281 62 q 278 78 278 103 l 278 312 l 324 312 q 399 312 451 327 q 504 341 537 367 q 570 392 586 427 q 601 461 601 501 z m 432 501 q 432 472 426 444 q 420 417 405 396 q 390 375 365 363 q 339 350 301 350 l 278 350 l 278 650 l 301 650 q 340 650 365 637 q 391 625 406 604 q 420 583 426 556 q 432 529 432 501 z"},"|":{"x_min":0,"x_max":229,"ha":229,"o":"m 148 -223 l 148 703 l 81 703 l 81 -223 z"},"t":{"x_min":0,"x_max":345,"ha":345,"o":"m 335 81 l 320 93 q 316 86 310 77 q 304 69 296 61 q 289 54 279 48 q 269 43 258 43 q 223 43 223 102 l 223 424 l 335 424 l 335 474 l 223 474 l 223 648 l 206 648 q 188 617 169 589 q 149 562 127 537 q 104 512 78 489 q 51 465 20 442 l 20 424 l 81 424 l 81 108 q 81 79 90 56 q 100 33 116 17 q 132 1 155 -7 q 177 -15 203 -15 q 230 -15 251 -7 q 272 1 289 15 q 305 28 316 45 q 328 62 335 81 z"},"M":{"x_min":0,"x_max":977,"ha":977,"o":"m 958 0 l 958 19 q 927 19 907 23 q 888 27 878 37 q 867 47 864 64 q 860 82 860 108 l 860 580 q 860 606 864 624 q 867 641 878 651 q 888 661 907 665 q 927 669 958 669 l 958 688 l 682 688 l 496 235 l 303 688 l 21 688 l 21 669 q 52 669 71 665 q 90 661 101 651 q 111 641 115 624 q 118 606 118 580 l 118 108 q 118 61 94 40 q 69 19 21 19 l 21 0 l 256 0 l 256 19 q 206 19 181 40 q 156 61 156 108 l 156 624 l 424 0 l 436 0 l 700 628 l 700 108 q 700 82 697 64 q 693 47 683 37 q 672 27 653 23 q 634 19 603 19 l 603 0 z"},"g":{"x_min":0,"x_max":520,"ha":520,"o":"m 498 -71 q 498 -44 490 -21 q 482 1 461 19 q 440 36 404 45 q 367 55 308 54 l 218 53 q 180 52 163 63 q 147 73 147 95 q 147 105 151 115 q 155 124 162 131 q 169 138 178 142 q 188 146 198 146 q 213 146 229 145 q 246 144 259 144 q 294 144 329 156 q 364 168 391 190 q 419 212 436 243 q 453 273 453 311 q 453 344 439 370 q 425 395 405 413 l 497 413 l 497 469 l 337 469 q 330 473 319 476 q 308 480 295 483 q 282 485 268 487 q 253 489 239 489 q 199 489 163 477 q 126 465 98 443 q 69 421 52 389 q 35 358 35 319 q 35 282 49 254 q 63 226 83 207 q 103 187 125 175 q 148 163 165 158 q 146 151 125 139 q 105 127 89 112 q 73 96 63 76 q 53 56 53 31 q 53 15 58 1 q 63 -12 73 -23 q 82 -34 93 -43 q 105 -51 118 -58 q 101 -62 85 -68 q 70 -74 59 -83 q 48 -91 42 -103 q 35 -115 35 -131 q 35 -151 51 -169 q 66 -186 94 -198 q 122 -211 162 -218 q 201 -225 250 -225 q 317 -225 365 -212 q 412 -199 441 -178 q 471 -157 484 -129 q 498 -101 498 -71 z m 317 310 q 317 281 313 256 q 310 231 302 212 q 294 194 281 183 q 269 173 249 173 q 226 173 212 186 q 198 198 191 218 q 184 237 181 261 q 179 285 179 307 q 179 337 182 364 q 185 392 193 413 q 200 434 214 446 q 227 458 248 458 q 271 458 285 444 q 299 430 306 408 q 313 386 315 360 q 317 333 317 310 z m 416 -119 q 416 -141 401 -154 q 386 -167 363 -175 q 340 -183 313 -186 q 286 -189 261 -189 q 221 -189 194 -183 q 167 -177 150 -167 q 134 -158 128 -145 q 121 -132 121 -117 q 121 -107 127 -98 q 132 -89 144 -82 q 156 -76 174 -72 q 192 -69 218 -70 q 245 -71 270 -72 q 294 -72 306 -72 q 309 -72 318 -72 q 328 -72 340 -73 q 352 -73 365 -76 q 379 -79 390 -84 q 401 -89 409 -97 q 416 -106 416 -119 z"},"j":{"x_min":0,"x_max":340,"ha":340,"o":"m 260 650 q 260 667 254 681 q 248 695 237 705 q 226 716 212 722 q 198 728 181 728 q 165 728 150 722 q 136 716 126 705 q 115 695 109 681 q 103 667 103 650 q 103 633 109 619 q 115 604 126 594 q 136 583 150 577 q 165 571 181 571 q 198 571 212 577 q 226 583 237 594 q 248 604 254 619 q 260 633 260 650 z m 252 -47 l 252 474 l 54 474 l 54 456 q 73 454 84 450 q 95 447 101 438 q 106 430 108 416 q 110 401 110 377 l 110 -110 q 110 -132 108 -146 q 106 -160 102 -168 q 98 -176 92 -179 q 85 -182 76 -182 q 59 -182 50 -173 q 41 -163 41 -139 q 41 -128 40 -118 q 38 -108 34 -100 q 29 -92 21 -87 q 12 -82 -3 -82 q -17 -82 -28 -86 q -39 -91 -46 -99 q -53 -106 -56 -116 q -60 -126 -60 -137 q -60 -153 -51 -169 q -42 -185 -25 -197 q -7 -209 20 -217 q 46 -225 83 -225 q 118 -225 148 -215 q 179 -204 202 -182 q 225 -160 239 -127 q 252 -93 252 -47 z"},"i":{"x_min":0,"x_max":289,"ha":289,"o":"m 228 650 q 228 667 222 681 q 216 695 205 705 q 194 716 180 722 q 166 728 149 728 q 132 728 118 722 q 104 716 94 705 q 83 695 77 681 q 71 667 71 650 q 71 633 77 619 q 83 604 94 594 q 104 583 118 577 q 132 571 149 571 q 166 571 180 577 q 194 583 205 594 q 216 604 222 619 q 228 633 228 650 z m 278 0 l 278 19 q 258 20 247 24 q 235 29 229 38 q 224 46 222 60 q 220 74 220 93 l 220 474 l 22 474 l 22 456 q 41 454 52 450 q 63 447 69 438 q 75 430 76 416 q 78 401 78 377 l 78 93 q 78 74 77 60 q 75 46 70 38 q 64 29 53 24 q 42 20 22 19 l 22 0 z"},"y":{"x_min":0,"x_max":520,"ha":520,"o":"m 511 456 l 511 474 l 352 474 l 352 456 q 395 455 405 431 q 415 407 397 360 l 322 163 l 227 383 q 220 399 217 412 q 214 426 217 436 q 221 445 231 451 q 242 456 261 456 l 261 474 l 8 474 l 8 456 q 23 452 35 443 q 46 433 56 421 q 65 408 72 395 q 79 381 84 369 l 253 -20 q 239 -55 228 -83 q 217 -111 207 -131 q 197 -150 187 -160 q 176 -171 163 -171 q 153 -171 150 -164 q 147 -157 147 -146 q 146 -135 146 -123 q 146 -110 141 -99 q 136 -88 126 -81 q 115 -74 94 -74 q 80 -74 68 -80 q 56 -85 47 -94 q 38 -104 33 -116 q 29 -128 29 -142 q 29 -161 36 -176 q 44 -191 57 -202 q 70 -213 87 -219 q 105 -225 125 -225 q 154 -225 176 -212 q 197 -199 214 -178 q 230 -157 243 -129 q 255 -101 267 -71 l 435 363 q 442 382 449 398 q 457 415 465 427 q 474 440 485 448 q 496 455 511 456 z"},"@":{"x_min":0,"x_max":967,"ha":967,"o":"m 944 84 l 913 84 q 891 22 851 -30 q 811 -81 757 -118 q 703 -155 638 -175 q 573 -196 500 -196 q 445 -196 394 -183 q 343 -171 299 -147 q 254 -124 217 -90 q 181 -56 154 -12 q 128 32 114 84 q 99 137 99 197 q 99 260 113 320 q 127 380 155 433 q 182 485 221 529 q 261 573 311 605 q 361 636 422 654 q 482 671 552 671 q 624 671 683 647 q 743 623 785 581 q 827 539 850 481 q 873 424 874 358 q 875 304 863 260 q 851 215 832 179 q 812 143 788 116 q 764 90 739 72 q 715 54 693 45 q 671 36 657 36 q 646 36 638 40 q 630 43 625 49 q 619 55 616 62 q 614 70 614 77 q 614 89 616 104 q 618 118 623 137 q 628 157 636 185 q 644 213 656 253 q 668 293 685 347 q 702 401 723 474 l 600 470 l 581 412 q 580 418 577 431 q 575 444 568 457 q 561 470 547 479 q 534 489 511 489 q 481 489 450 473 q 419 458 390 430 q 360 403 334 367 q 308 330 289 288 q 269 247 258 202 q 246 157 246 114 q 246 93 251 73 q 255 53 265 36 q 275 20 291 10 q 307 0 329 0 q 360 0 385 14 q 410 28 431 51 q 452 73 471 102 q 489 131 508 160 q 502 140 499 123 q 495 106 495 92 q 495 67 503 49 q 512 32 526 21 q 540 10 558 5 q 577 0 598 0 q 643 0 683 13 q 723 27 757 51 q 791 75 818 108 q 845 142 864 181 q 883 221 893 265 q 903 310 903 357 q 903 431 879 495 q 855 558 809 604 q 763 651 694 677 q 625 703 535 703 q 460 703 395 686 q 329 669 275 637 q 220 606 178 562 q 136 518 106 464 q 77 411 62 349 q 47 287 47 220 q 47 152 63 93 q 79 34 108 -16 q 137 -65 178 -104 q 219 -143 269 -170 q 319 -197 376 -211 q 434 -225 495 -225 q 575 -225 645 -203 q 715 -181 772 -141 q 830 -100 874 -43 q 917 14 944 84 z m 558 383 q 558 353 551 319 q 543 286 530 254 q 518 222 501 193 q 485 164 468 142 q 451 120 434 107 q 417 94 404 94 q 397 94 393 98 q 388 103 385 109 q 381 116 380 124 q 378 132 378 139 q 378 153 381 174 q 384 195 390 219 q 396 244 405 271 q 413 298 423 324 q 433 350 445 373 q 457 396 470 414 q 482 431 496 442 q 509 452 523 452 q 533 452 540 446 q 546 439 551 429 q 555 418 556 406 q 558 394 558 383 z"},".":{"x_min":0,"x_max":346,"ha":346,"o":"m 228 61 q 228 76 222 89 q 216 102 206 111 q 196 121 183 126 q 170 132 155 132 q 140 132 127 126 q 114 121 104 111 q 95 102 89 89 q 83 76 83 61 q 83 46 89 33 q 95 20 104 10 q 114 0 127 -6 q 140 -12 155 -12 q 170 -12 183 -6 q 196 0 206 10 q 216 20 222 33 q 228 46 228 61 z"},"p":{"x_min":0,"x_max":579,"ha":579,"o":"m 535 237 q 535 293 521 339 q 507 386 482 419 q 458 452 425 470 q 391 489 353 489 q 310 489 278 470 q 247 452 219 412 l 219 474 l 20 474 l 20 456 q 39 454 50 450 q 61 447 67 438 q 73 430 75 416 q 77 401 77 377 l 77 -130 q 77 -149 75 -163 q 74 -177 68 -186 q 62 -194 51 -199 q 40 -204 20 -204 l 20 -223 l 290 -223 l 290 -204 q 268 -204 254 -201 q 240 -198 232 -189 q 225 -181 222 -166 q 219 -152 219 -130 l 219 48 q 245 18 276 1 q 307 -15 349 -15 q 395 -15 429 6 q 464 27 488 62 q 511 97 523 142 q 535 188 535 237 z m 385 237 q 385 180 380 141 q 375 103 365 80 q 356 57 343 47 q 330 37 315 37 q 298 37 284 43 q 270 48 259 57 q 248 66 238 77 q 228 88 219 99 l 219 355 q 227 370 235 383 q 244 396 255 406 q 266 415 278 420 q 291 426 305 426 q 331 426 347 408 q 362 391 371 363 q 379 335 382 302 q 385 269 385 237 z"},"X":{"x_min":0,"x_max":751,"ha":751,"o":"m 744 0 l 744 19 q 733 19 724 21 q 714 23 704 30 q 694 37 683 50 q 672 62 658 83 q 658 83 642 106 q 625 130 596 172 q 566 215 526 274 q 486 333 439 404 l 596 593 q 617 618 632 633 q 646 648 660 656 q 673 664 688 667 q 703 669 723 669 l 723 688 l 470 688 l 470 669 q 496 669 515 662 q 533 654 541 640 q 548 625 542 604 q 537 583 514 555 l 417 436 l 315 590 q 301 611 296 626 q 291 641 297 651 q 302 660 319 665 q 335 669 364 669 l 364 688 l 22 688 l 22 669 q 32 669 42 667 q 51 665 61 658 q 70 651 82 638 q 93 625 107 605 q 107 605 123 582 q 140 559 167 518 q 195 478 232 424 q 270 370 311 308 l 159 123 q 137 96 120 78 q 103 60 85 48 q 68 36 49 29 q 31 22 7 19 l 7 0 l 271 0 l 271 19 q 189 19 183 53 q 176 87 239 163 l 332 275 q 339 264 351 247 q 362 229 376 210 q 389 190 403 171 q 416 151 427 135 q 438 119 444 109 q 451 99 451 99 q 479 57 469 38 q 459 19 407 19 l 407 0 z"},"*":{"x_min":0,"x_max":506,"ha":506,"o":"m 443 365 q 449 375 449 385 q 450 394 447 401 q 444 409 438 415 q 432 421 425 425 q 410 434 395 437 q 380 440 364 443 q 348 446 330 451 q 312 456 292 468 q 312 480 330 485 q 348 490 364 493 q 379 497 394 500 q 409 503 424 512 q 431 516 437 522 q 443 529 446 536 q 449 544 449 553 q 449 562 443 572 q 437 582 429 587 q 421 592 413 593 q 405 594 396 592 q 388 590 381 586 q 366 577 355 566 q 345 555 334 542 q 323 530 310 517 q 296 504 276 492 q 276 516 281 534 q 285 552 291 567 q 297 582 302 596 q 306 611 306 628 q 306 636 304 645 q 301 653 296 660 q 291 667 283 671 q 275 675 264 675 q 252 675 244 671 q 235 667 230 660 q 225 653 223 645 q 220 636 220 628 q 220 611 225 596 q 229 582 235 566 q 241 551 245 533 q 250 516 250 492 q 229 504 216 517 q 203 530 192 542 q 182 554 171 565 q 161 576 146 585 q 139 589 130 591 q 122 593 114 592 q 106 591 98 586 q 91 581 85 571 q 79 561 78 552 q 78 542 81 535 q 84 527 90 521 q 96 515 103 511 q 118 502 133 499 q 148 496 164 492 q 180 489 198 484 q 216 479 236 468 q 215 456 197 451 q 180 446 164 443 q 147 439 133 436 q 118 433 103 424 q 96 420 90 414 q 84 408 81 400 q 78 392 79 383 q 79 375 85 365 q 91 354 99 349 q 106 344 115 343 q 123 342 131 344 q 139 346 146 350 q 161 359 172 370 q 182 381 193 394 q 204 406 217 419 q 230 432 251 444 q 251 420 246 402 q 242 384 236 369 q 230 354 226 339 q 221 324 221 307 q 221 299 224 291 q 226 283 231 276 q 236 270 245 265 q 253 261 264 261 q 276 261 284 265 q 292 270 298 276 q 303 283 305 291 q 307 299 307 307 q 307 324 302 339 q 298 354 292 369 q 287 384 282 402 q 278 420 278 444 q 298 432 312 419 q 325 406 335 394 q 346 382 356 371 q 367 360 382 351 q 389 347 397 345 q 406 343 414 344 q 422 345 430 350 q 438 355 443 365 z"},"Y":{"x_min":0,"x_max":751,"ha":751,"o":"m 739 669 l 739 688 l 529 688 l 529 669 q 557 669 575 664 q 594 659 601 647 q 607 635 602 614 q 597 593 578 561 l 436 322 l 286 599 q 275 619 272 632 q 269 646 274 654 q 280 662 296 666 q 312 669 339 669 l 339 688 l 9 688 l 9 669 q 25 669 38 665 q 51 662 64 650 q 76 639 90 619 q 104 598 122 565 l 295 251 l 295 108 q 295 82 289 64 q 283 47 269 37 q 255 27 234 23 q 212 19 181 19 l 181 0 l 567 0 l 567 19 q 536 19 514 23 q 493 27 480 37 q 467 47 461 64 q 455 82 455 108 l 455 278 l 603 529 q 627 570 645 597 q 663 624 678 640 q 693 656 707 662 q 722 669 739 669 z"},"c":{"x_min":0,"x_max":462,"ha":462,"o":"m 439 110 l 422 123 q 398 97 376 82 q 354 67 326 67 q 302 67 281 74 q 260 82 242 101 q 224 120 209 153 q 194 186 183 237 q 179 258 177 282 q 176 307 177 331 q 179 354 184 377 q 189 399 197 416 q 205 433 216 443 q 228 453 242 453 q 257 453 266 447 q 274 440 279 430 q 283 420 285 407 q 288 394 290 380 q 292 366 296 353 q 299 339 307 329 q 315 319 328 312 q 341 306 362 306 q 375 306 386 310 q 397 314 406 323 q 414 331 419 342 q 424 354 424 369 q 424 388 414 409 q 405 430 385 448 q 366 466 336 477 q 307 489 266 489 q 222 489 188 476 q 155 463 130 443 q 104 422 87 395 q 70 369 60 341 q 49 312 45 285 q 40 258 40 237 q 40 174 58 126 q 75 79 104 48 q 133 16 170 0 q 207 -15 245 -15 q 285 -15 315 -4 q 346 8 370 26 q 393 43 410 66 q 427 88 439 110 z"},"!":{"x_min":0,"x_max":458,"ha":458,"o":"m 256 579 q 256 599 253 616 q 250 634 242 647 q 234 660 221 667 q 208 675 188 675 q 167 675 155 667 q 142 659 134 646 q 127 632 124 615 q 121 598 121 579 q 121 551 127 514 q 133 477 142 427 q 151 378 160 316 q 170 253 177 175 l 199 175 q 206 253 216 316 q 226 378 234 427 q 243 477 250 514 q 256 551 256 579 z m 258 59 q 258 73 252 86 q 247 99 238 108 q 229 117 216 123 q 203 128 189 128 q 175 128 162 123 q 150 117 141 108 q 131 99 126 86 q 121 73 121 59 q 121 45 126 33 q 131 21 141 11 q 150 2 162 -3 q 175 -9 189 -9 q 203 -9 216 -4 q 229 1 238 11 q 247 20 252 32 q 258 45 258 59 z"},"/":{"x_min":0,"x_max":319,"ha":319,"o":"m 294 676 l 228 676 l 9 -17 l 73 -17 z"},"[":{"x_min":0,"x_max":346,"ha":346,"o":"m 303 -160 l 303 -130 l 222 -130 q 211 -130 201 -121 q 192 -112 192 -101 l 192 602 q 192 613 201 622 q 211 631 222 631 l 303 631 l 303 662 l 73 662 l 73 -155 l 73 -160 z"},"6":{"x_min":0,"x_max":513,"ha":513,"o":"m 477 223 q 477 280 461 319 q 445 359 419 384 q 393 409 360 420 q 327 431 293 431 q 264 431 240 425 q 217 419 194 404 q 208 460 231 504 q 253 548 285 580 q 317 612 359 632 q 401 652 454 662 l 451 684 q 390 684 335 668 q 281 652 235 625 q 189 597 152 560 q 116 522 90 478 q 64 434 51 385 q 37 336 37 286 q 37 212 58 156 q 79 101 113 63 q 146 26 187 8 q 229 -11 269 -11 q 310 -11 348 6 q 386 24 414 55 q 443 86 460 129 q 477 172 477 223 z m 347 173 q 347 138 344 110 q 340 82 331 62 q 323 43 309 32 q 294 22 274 22 q 246 22 226 44 q 206 65 193 100 q 180 134 174 176 q 168 218 168 259 q 168 321 186 351 q 204 380 247 380 q 294 380 321 326 q 347 272 347 173 z"},"r":{"x_min":0,"x_max":462,"ha":462,"o":"m 446 420 q 446 449 430 469 q 415 489 384 489 q 357 489 335 478 q 313 466 295 448 q 277 431 262 409 q 247 388 232 367 l 232 474 l 38 474 l 38 456 q 56 454 66 450 q 76 447 82 438 q 87 430 88 416 q 90 401 90 377 l 90 93 q 90 74 88 60 q 86 46 81 38 q 75 29 65 24 q 55 20 38 19 l 38 0 l 294 0 l 294 19 q 271 20 258 24 q 246 29 240 38 q 234 46 233 60 q 232 74 232 93 l 232 226 q 232 235 233 251 q 234 267 238 285 q 241 303 247 322 q 252 341 261 356 q 269 371 281 381 q 292 390 308 390 q 317 390 324 384 q 332 377 340 370 q 348 363 360 356 q 372 350 389 350 q 402 350 413 355 q 423 361 431 370 q 438 380 442 393 q 446 405 446 420 z"},"2":{"x_min":0,"x_max":513,"ha":513,"o":"m 472 158 l 456 164 q 445 143 437 130 q 428 117 419 110 q 411 104 400 101 q 389 99 373 99 l 163 99 q 213 151 261 201 q 309 252 346 301 q 384 351 407 399 q 430 447 430 494 q 430 531 420 564 q 410 597 388 621 q 367 646 332 660 q 298 674 249 674 q 206 674 171 658 q 137 643 110 616 q 84 589 66 552 q 48 516 38 474 l 59 470 q 80 519 110 543 q 141 568 187 568 q 213 568 234 558 q 254 549 269 532 q 283 516 290 494 q 298 473 298 448 q 298 416 292 385 q 286 355 273 325 q 260 294 239 261 q 219 229 190 192 q 161 155 123 112 q 85 68 37 16 l 37 0 l 434 0 z"},"{":{"x_min":0,"x_max":479,"ha":479,"o":"m 424 -179 l 424 -151 q 367 -145 337 -117 q 306 -90 306 -36 l 306 98 q 306 129 299 151 q 292 172 279 187 q 267 202 250 212 q 232 221 212 228 q 192 234 171 239 q 149 244 127 249 q 149 254 171 258 q 192 263 212 269 q 232 275 250 285 q 267 294 279 309 q 292 324 299 346 q 306 367 306 398 l 306 532 q 306 559 314 579 q 322 599 337 613 q 352 627 374 635 q 396 644 424 647 l 424 675 q 403 675 377 673 q 352 672 325 667 q 299 662 274 653 q 249 643 229 627 q 210 611 198 587 q 186 564 186 531 l 186 382 q 186 355 177 336 q 167 317 150 304 q 134 291 111 282 q 88 274 61 271 l 61 225 q 88 221 111 213 q 134 206 150 192 q 167 179 177 160 q 186 141 186 114 l 186 -34 q 186 -67 198 -91 q 210 -114 229 -130 q 249 -146 274 -156 q 299 -166 325 -171 q 352 -176 377 -178 q 403 -179 424 -179 z"},"9":{"x_min":0,"x_max":513,"ha":513,"o":"m 473 385 q 473 457 455 511 q 437 565 405 601 q 374 637 332 655 q 290 673 242 673 q 193 673 153 656 q 114 639 86 608 q 59 578 44 535 q 29 493 29 442 q 29 385 46 346 q 63 306 90 281 q 117 256 150 245 q 184 234 216 234 q 247 234 271 242 q 295 251 321 269 q 309 231 298 199 q 288 167 274 141 q 260 115 242 93 q 225 72 199 55 q 174 38 140 25 q 105 12 59 3 l 66 -23 q 132 -17 188 3 q 244 22 289 51 q 334 80 369 118 q 403 156 427 199 q 450 242 461 289 q 473 336 473 385 z m 332 411 q 332 398 331 382 q 331 366 329 351 q 328 336 325 325 q 323 313 320 310 q 307 298 293 291 q 278 284 258 284 q 213 284 189 335 q 165 385 165 484 q 165 525 170 555 q 175 585 184 604 q 193 623 206 632 q 218 641 234 641 q 253 641 268 632 q 282 622 293 605 q 304 588 312 566 q 319 544 323 518 q 328 493 330 465 q 332 438 332 411 z"}," ":{"x_min":0,"x_max":314,"ha":314,"o":""},"I":{"x_min":0,"x_max":396,"ha":396,"o":"m 375 0 l 375 19 q 344 19 325 23 q 306 27 295 37 q 285 47 281 64 q 278 82 278 108 l 278 580 q 278 606 281 624 q 285 641 295 651 q 306 661 325 665 q 344 669 375 669 l 375 688 l 21 688 l 21 669 q 52 669 71 665 q 90 661 101 651 q 111 641 115 624 q 118 606 118 580 l 118 108 q 118 82 115 64 q 111 47 101 37 q 90 27 71 23 q 52 19 21 19 l 21 0 z"},"H":{"x_min":0,"x_max":808,"ha":808,"o":"m 789 0 l 789 19 q 758 19 739 23 q 720 27 709 37 q 699 47 695 64 q 692 82 692 108 l 692 580 q 692 606 695 624 q 699 641 709 651 q 720 661 739 665 q 758 669 789 669 l 789 688 l 435 688 l 435 669 q 466 669 485 665 q 504 661 515 651 q 525 641 529 624 q 532 606 532 580 l 532 375 l 277 375 l 277 580 q 277 606 280 624 q 284 641 294 651 q 305 661 324 665 q 343 669 374 669 l 374 688 l 20 688 l 20 669 q 51 669 70 665 q 89 661 100 651 q 110 641 114 624 q 117 606 117 580 l 117 108 q 117 82 114 64 q 110 47 100 37 q 89 27 70 23 q 51 19 20 19 l 20 0 l 374 0 l 374 19 q 343 19 324 23 q 305 27 294 37 q 284 47 280 64 q 277 82 277 108 l 277 331 l 532 331 l 532 108 q 532 82 529 64 q 525 47 515 37 q 504 27 485 23 q 466 19 435 19 l 435 0 z"},"4":{"x_min":0,"x_max":513,"ha":513,"o":"m 477 144 l 477 239 l 397 239 l 397 670 l 336 670 l 24 240 l 24 144 l 275 144 l 275 0 l 397 0 l 397 144 z m 275 239 l 71 239 l 275 525 z"},"~":{"x_min":0,"x_max":571,"ha":571,"o":"m 562 360 l 533 360 q 531 341 524 324 q 518 308 506 295 q 495 282 479 275 q 463 267 443 267 q 426 267 404 274 q 381 281 355 291 q 329 302 301 314 q 273 326 245 337 q 218 347 191 354 q 165 361 143 361 q 113 361 89 349 q 64 338 47 317 q 30 295 20 265 q 10 235 9 197 l 38 197 q 41 219 49 236 q 58 253 69 264 q 81 276 96 281 q 110 287 126 287 q 144 287 167 280 q 190 273 216 263 q 242 253 270 241 q 297 229 324 219 q 352 209 377 203 q 403 196 424 196 q 455 196 481 209 q 506 222 524 244 q 542 267 552 296 q 562 326 562 360 z"},"D":{"x_min":0,"x_max":744,"ha":744,"o":"m 701 344 q 701 415 678 478 q 655 540 611 587 q 566 634 503 661 q 439 688 358 688 l 14 688 l 14 669 q 45 669 64 665 q 83 661 94 651 q 104 641 107 624 q 111 606 111 580 l 111 108 q 111 82 107 64 q 104 47 94 37 q 83 27 64 23 q 45 19 14 19 l 14 0 l 358 0 q 439 0 503 26 q 566 52 611 98 q 655 145 678 208 q 701 271 701 344 z m 518 344 q 518 307 514 269 q 511 232 502 198 q 494 164 480 134 q 466 105 446 83 q 426 62 398 49 q 371 37 336 37 q 316 37 303 41 q 291 44 284 52 q 276 60 274 74 q 271 87 271 108 l 271 650 l 311 650 q 352 650 383 637 q 414 625 437 603 q 460 581 475 551 q 491 521 500 488 q 510 454 514 417 q 518 380 518 344 z"},"^":{"x_min":0,"x_max":410,"ha":410,"o":"m 354 414 l 215 733 l 196 733 l 59 414 l 108 413 l 201 595 l 303 413 z"},"0":{"x_min":0,"x_max":513,"ha":513,"o":"m 467 333 q 467 422 447 487 q 427 551 395 593 q 363 634 324 653 q 286 673 248 673 q 203 673 161 654 q 120 635 87 594 q 54 552 35 486 q 15 420 15 326 q 15 238 34 175 q 53 112 84 71 q 115 31 156 11 q 197 -8 240 -8 q 283 -8 324 12 q 365 31 396 73 q 428 114 448 178 q 467 243 467 333 z m 326 323 q 326 244 321 187 q 315 130 305 93 q 294 56 279 39 q 264 21 244 21 q 227 21 210 38 q 194 54 181 91 q 168 128 161 188 q 153 249 153 335 q 153 421 160 478 q 168 536 181 570 q 193 605 210 619 q 227 634 244 634 q 262 634 277 618 q 292 602 303 566 q 314 529 320 470 q 326 411 326 323 z"},"F":{"x_min":0,"x_max":632,"ha":632,"o":"m 601 491 l 601 688 l 21 688 l 21 669 q 52 669 71 665 q 90 661 101 651 q 111 641 115 624 q 118 606 118 580 l 118 108 q 118 82 115 64 q 111 47 101 37 q 90 27 71 23 q 52 19 21 19 l 21 0 l 376 0 l 376 19 q 343 19 323 23 q 304 28 294 38 q 284 49 281 66 q 278 83 278 108 l 278 327 l 305 327 q 342 327 368 316 q 395 304 413 283 q 431 262 440 232 q 450 203 452 166 l 470 166 l 470 514 l 453 514 q 449 480 439 453 q 429 425 412 406 q 394 387 368 376 q 342 366 305 366 l 278 366 l 278 650 l 369 650 q 417 650 455 642 q 492 635 519 616 q 545 598 560 568 q 576 537 580 491 z"},"`":{"x_min":0,"x_max":356,"ha":356,"o":"m 242 539 l 92 723 q 86 730 76 735 q 65 739 54 739 q 43 739 33 735 q 23 730 16 723 q 8 716 4 706 q 0 696 0 685 q 0 674 3 663 q 7 652 16 647 l 190 539 z"},"k":{"x_min":0,"x_max":578,"ha":578,"o":"m 588 0 l 588 19 q 575 20 566 23 q 557 27 550 32 q 543 38 537 46 q 530 54 523 65 l 353 313 l 456 413 q 473 430 495 442 q 518 455 547 455 l 547 474 l 334 474 l 334 455 q 356 454 370 447 q 384 440 388 428 q 392 416 384 399 q 376 382 355 361 l 227 235 l 227 688 l 34 688 l 34 670 q 51 667 61 664 q 71 660 76 652 q 82 644 83 629 q 85 615 85 591 l 85 83 q 85 67 84 56 q 83 45 78 37 q 73 30 62 25 q 52 21 34 19 l 34 0 l 280 0 l 280 19 q 261 21 250 26 q 240 31 235 39 q 229 47 228 58 q 227 69 227 83 l 227 187 l 259 218 l 357 75 q 367 60 371 49 q 375 39 372 32 q 370 25 362 22 q 354 19 343 19 l 343 0 z"},"u":{"x_min":0,"x_max":578,"ha":578,"o":"m 545 0 l 545 19 q 529 21 519 25 q 509 28 503 36 q 498 44 496 59 q 494 73 494 97 l 494 474 l 300 474 l 300 455 q 316 453 327 448 q 337 443 343 435 q 348 426 350 413 q 352 400 352 381 l 352 120 q 345 109 337 97 q 329 85 319 76 q 309 66 297 60 q 285 54 271 54 q 246 54 236 73 q 225 91 225 120 l 225 474 l 32 474 l 32 455 q 49 453 60 448 q 70 444 75 435 q 80 427 82 413 q 83 400 83 381 l 83 150 q 83 112 91 81 q 99 51 115 29 q 131 8 156 -4 q 181 -15 215 -15 q 238 -15 258 -8 q 278 0 295 11 q 312 22 326 35 q 341 49 352 61 l 352 0 z"},"]":{"x_min":0,"x_max":346,"ha":346,"o":"m 272 -160 l 272 -155 l 272 662 l 42 662 l 42 631 l 123 631 q 134 631 144 622 q 153 613 153 602 l 153 -101 q 153 -112 144 -121 q 134 -130 123 -130 l 42 -130 l 42 -160 z"},"U":{"x_min":0,"x_max":751,"ha":751,"o":"m 733 669 l 733 688 l 495 688 l 495 669 q 520 669 538 665 q 557 661 569 651 q 582 641 588 624 q 594 606 594 580 l 594 269 q 594 207 583 163 q 572 119 551 90 q 529 62 496 49 q 463 35 420 35 q 376 35 349 48 q 321 61 305 85 q 290 109 284 143 q 278 177 278 220 l 278 580 q 278 606 282 624 q 286 641 297 651 q 308 661 327 665 q 347 669 378 669 l 378 688 l 25 688 l 25 669 q 56 669 74 665 q 93 661 103 651 q 112 641 115 624 q 118 606 118 580 l 118 219 q 118 101 181 43 q 245 -15 372 -15 q 429 -15 478 -3 q 526 9 561 39 q 596 69 616 120 q 636 171 636 250 l 636 580 q 636 606 643 624 q 649 641 662 651 q 674 661 692 665 q 710 669 733 669 z"},"o":{"x_min":0,"x_max":520,"ha":520,"o":"m 483 237 q 483 286 468 332 q 453 377 425 412 q 396 447 354 468 q 313 489 260 489 q 207 489 165 468 q 124 447 95 412 q 67 377 52 332 q 37 286 37 237 q 37 188 52 142 q 67 97 95 62 q 124 27 165 6 q 207 -15 260 -15 q 313 -15 354 6 q 396 27 425 62 q 453 97 468 142 q 483 188 483 237 z m 334 237 q 334 178 330 137 q 326 96 317 70 q 308 44 293 33 q 279 21 260 21 q 240 21 226 33 q 212 44 203 70 q 194 96 190 137 q 186 178 186 237 q 186 295 190 336 q 194 377 203 404 q 212 430 226 441 q 240 453 260 453 q 279 453 293 441 q 308 430 317 404 q 326 377 330 336 q 334 295 334 237 z"},"N":{"x_min":0,"x_max":753,"ha":753,"o":"m 730 669 l 730 688 l 501 688 l 501 669 q 551 669 576 648 q 600 627 600 580 l 600 262 l 261 688 l 17 688 l 17 670 q 34 670 46 667 q 58 665 69 657 q 80 650 91 638 q 103 625 118 605 l 118 108 q 118 61 92 40 q 65 19 17 19 l 17 0 l 261 0 l 261 19 q 210 19 183 40 q 156 61 156 108 l 156 557 l 620 -15 l 638 -15 l 638 580 q 638 627 660 648 q 682 669 730 669 z"},"+":{"x_min":0,"x_max":590,"ha":590,"o":"m 540 207 l 540 300 l 333 300 l 333 506 l 245 506 l 245 300 l 38 300 l 38 207 l 245 207 l 245 0 l 333 0 l 333 207 z"},"G":{"x_min":0,"x_max":809,"ha":809,"o":"m 795 270 l 795 289 l 466 289 l 466 270 q 493 270 510 266 q 527 262 537 252 q 546 242 550 225 q 554 208 554 181 l 554 48 q 529 35 503 30 q 476 25 441 25 q 396 25 363 36 q 330 48 305 69 q 281 90 264 119 q 248 148 239 184 q 229 219 225 260 q 221 301 221 344 q 221 409 233 467 q 244 525 271 569 q 297 612 341 638 q 385 663 449 663 q 486 663 524 649 q 562 635 596 609 q 630 583 656 546 q 682 509 694 463 l 714 463 l 714 704 l 695 704 q 688 684 677 668 q 666 653 651 653 q 638 653 626 656 q 614 660 601 666 q 587 671 570 678 q 553 685 531 690 q 510 696 482 699 q 454 703 418 703 q 358 703 307 689 q 256 675 214 650 q 172 625 139 591 q 107 557 84 517 q 62 477 51 433 q 39 389 39 344 q 39 299 49 255 q 59 211 80 171 q 100 131 131 97 q 162 63 204 38 q 245 13 298 -1 q 351 -15 414 -15 q 503 -15 576 0 q 649 15 714 44 l 714 181 q 714 208 717 225 q 719 242 728 252 q 736 262 752 266 q 769 270 795 270 z"},"q":{"x_min":0,"x_max":578,"ha":578,"o":"m 557 -223 l 557 -204 q 538 -204 526 -200 q 514 -196 507 -187 q 500 -179 498 -165 q 496 -151 496 -130 l 496 489 l 478 489 l 399 434 q 391 444 379 454 q 367 464 351 472 q 335 479 315 484 q 295 489 271 489 q 238 489 208 479 q 178 469 153 452 q 127 435 106 411 q 85 387 71 359 q 56 331 48 300 q 40 269 40 237 q 40 171 54 123 q 68 76 93 45 q 118 14 150 0 q 183 -15 220 -15 q 241 -15 259 -10 q 277 -6 293 3 q 310 11 324 23 q 339 35 354 50 l 354 -130 q 354 -151 352 -166 q 349 -180 342 -188 q 334 -196 320 -200 q 306 -204 283 -204 l 283 -223 z m 354 95 q 347 86 337 77 q 327 68 316 60 q 305 53 293 48 q 281 43 268 43 q 242 43 227 60 q 211 77 202 103 q 194 130 191 163 q 188 195 188 227 q 188 279 193 321 q 197 363 208 392 q 219 422 237 438 q 254 454 281 454 q 316 454 335 422 q 354 391 354 324 z"},"d":{"x_min":0,"x_max":578,"ha":578,"o":"m 565 25 l 565 43 q 533 43 515 56 q 497 69 497 106 l 497 688 l 286 688 l 286 669 q 324 669 339 655 q 355 641 355 612 l 355 429 q 329 460 302 474 q 276 489 240 489 q 205 489 177 478 q 148 467 126 448 q 104 430 87 405 q 71 380 61 352 q 50 324 45 294 q 40 264 40 236 q 40 176 54 130 q 69 83 94 51 q 118 19 151 2 q 183 -15 219 -15 q 242 -15 260 -11 q 277 -6 293 3 q 309 12 323 26 q 338 41 355 61 l 355 -15 z m 355 116 q 351 109 343 97 q 335 85 324 74 q 313 63 300 55 q 286 47 270 47 q 230 47 209 97 q 189 146 189 250 q 189 269 190 290 q 190 312 193 333 q 196 354 201 373 q 206 392 214 407 q 223 421 235 430 q 247 439 264 439 q 281 439 295 431 q 310 424 322 413 q 333 402 342 389 q 351 377 355 367 z"},"1":{"x_min":0,"x_max":513,"ha":513,"o":"m 413 0 l 413 21 q 383 22 365 26 q 348 29 339 36 q 330 42 328 52 q 325 62 325 77 l 325 663 q 325 670 323 671 q 322 672 317 669 l 103 579 l 103 558 q 125 568 141 571 q 156 574 167 572 q 177 569 183 562 q 189 556 192 546 q 195 537 196 526 q 197 515 197 505 l 197 95 q 197 76 194 63 q 192 49 183 41 q 174 32 157 28 q 139 23 109 21 l 109 0 z"},"5":{"x_min":0,"x_max":513,"ha":513,"o":"m 457 680 l 440 686 q 437 682 434 677 q 432 673 429 669 q 426 666 422 664 q 418 662 412 662 l 156 662 l 46 372 q 43 366 45 363 q 46 360 53 360 q 117 360 174 348 q 230 336 272 312 q 313 289 338 252 q 362 215 362 165 q 362 136 351 111 q 341 86 324 68 q 308 50 288 40 q 268 30 248 30 q 233 30 220 36 q 207 43 194 53 q 182 62 169 74 q 156 85 143 95 q 129 105 114 112 q 99 118 81 118 q 57 118 44 104 q 31 90 31 67 q 31 51 38 37 q 46 23 63 12 q 81 1 110 -5 q 140 -11 183 -11 q 241 -11 291 6 q 341 23 377 54 q 414 85 435 130 q 456 174 456 228 q 456 277 443 314 q 429 352 406 379 q 383 406 351 425 q 319 444 283 456 q 246 467 206 473 q 166 479 126 481 l 159 561 l 402 561 q 415 561 421 572 z"}}}
